<svg version="1.1" id="map-svg" xmlns="http://www.w3.org/2000/svg" xmlns:xlink="http://www.w3.org/1999/xlink" x="0px" y="0px"
	 width="802px" height="594px" viewBox="0 0 802 594" enable-background="new 0 0 802 594" xml:space="preserve" style="position:absolute;top:0px;left:0px;    position: absolute;
    top: 100px;
    left: 39px;
    /*background: rgba(76, 175, 80, 0.5);*/">

<g id="大邑县_x5F_复制">
	<g>
		<defs>
			<polygon id="SVGID_1_" points="337.045,396.005 328.592,396.197 324.058,399.731 323.194,409.444 314.561,418.273 
				312.642,421.285 310.459,420.481 305.277,412.755 288.871,406.574 278.077,414.302 280.452,421.584 260.591,422.246 
				246.128,414.08 236.413,400.613 225.62,403.706 217.201,400.835 213.1,390.46 201.656,382.733 190.865,377.658 185.034,378.762 
				176.615,377.216 169.492,380.084 159.993,379.864 158.915,391.564 154.598,389.578 148.12,387.591 146.609,394.212 
				139.919,395.755 136.463,393.329 128.909,393.549 124.808,388.253 122.215,388.033 117.898,384.502 110.533,386.275 
				108.036,386.117 106.889,376.402 110.057,369.928 103.15,363.457 98.833,364.633 95.378,361.103 96.813,346.383 94.222,329.313 
				85.587,328.43 77.815,316.36 75.803,312.536 60.839,319.01 57.67,307.831 46.729,293.995 48.172,286.929 74.94,277.511 
				91.062,282.516 93.263,282.182 93.935,283.398 94.222,288.405 97.678,293.995 103.72,294.286 111.785,302.235 124.16,305.476 
				135.668,295.47 146.609,306.066 149.484,311.063 156.109,311.655 165.608,305.476 171.073,314.013 181.436,304.592 
				193.818,308.414 204.178,305.476 213.383,311.362 223.462,309.005 242.173,318.428 253.968,327.548 260.308,356.093 
				255.989,364.04 258.581,374.345 256.852,379.936 270.668,381.998 280.167,377.878 283.328,389.648 289.086,386.417 
				292.54,379.053 310.095,372.289 323.341,376.994 333.409,394.654 			"/>
		</defs>
		<clipPath id="SVGID_2_">
			<use xlink:href="#SVGID_1_"  overflow="visible"/>
		</clipPath>
		<rect x="41.536" y="272.197" opacity="0.4" clip-path="url(#SVGID_2_)" fill="#FFFFFF" width="300.702" height="155.364"/>
	</g>
</g>
<g id="邛崃市">
	<g>
		<defs>
			<polygon id="SVGID_3_" points="333.581,461.302 332.94,463.919 328.317,463.919 327.744,471.213 319.955,469.171 323.417,477.05 
				311.297,482.878 303.505,482.878 302.709,478.871 303.792,474.273 288.643,466.397 281.932,465.302 279.552,461.802 
				270.463,462.02 262.672,466.614 253.365,463.989 253.15,456.767 208.567,462.238 205.32,459.395 191.901,468.147 186.06,467.49 
				183.247,472.086 174.156,476.024 174.588,480.621 170.044,478.432 168.746,481.716 163.983,483.903 162.434,485.769 
				160.956,485.217 151.146,485.217 137.58,492.806 133.538,505.934 128.058,505.934 125.175,495.132 114.208,492.506 
				103.535,505.934 94.582,507.687 89.684,503.013 76.983,501.848 73.807,484.343 69.192,482.005 72.074,474.711 69.771,468.584 
				76.983,462.459 81.893,462.169 94.877,446.699 90.834,439.408 92.279,419.567 97.759,418.979 95.741,410.813 103.82,405.561 
				107.282,405.561 117.384,390.393 116.225,387.181 109.204,386.752 116.589,384.992 120.916,388.492 123.514,388.712 
				127.626,393.962 135.201,393.744 138.663,396.149 145.372,394.618 146.886,388.055 153.379,390.025 157.708,391.995 
				158.789,380.395 168.313,380.613 175.453,377.769 183.894,379.303 189.738,378.207 200.559,383.238 212.029,390.899 
				216.142,401.186 224.582,404.03 235.403,400.967 245.141,414.313 259.641,422.411 279.552,421.756 277.171,414.535 
				287.994,406.875 304.44,413.001 309.634,420.66 311.824,421.457 310.5,423.504 325.865,440.576 326.73,448.015 329.329,451.517 
				325.649,452.613 319.806,457.861 323.269,458.3 327.813,456.549 330.844,460.27 			"/>
		</defs>
		<clipPath id="SVGID_4_">
			<use xlink:href="#SVGID_3_"  overflow="visible"/>
		</clipPath>
		<rect x="63.986" y="372.502" opacity="0.4" clip-path="url(#SVGID_4_)" fill="#FFFFFF" width="274.8" height="140.452"/>
	</g>
</g>
<g id="崇州市">
	<g>
		<defs>
			<path id="SVGID_5_" d="M352.522,369.461l-2.574,9.889l-1.416,8.302l-0.015,0.12h-1.715c0,0-1.427-0.287-2.859-0.871
				c-1.433-0.575-2.573,1.455-2.573,1.455v1.744l0.574,5.521l-3.431,1.169l-2.685-0.994l-3.612-1.334l-10.001-17.44l-13.161-4.648
				l-17.441,6.681l-3.431,7.271l-5.722,3.191l-3.139-11.623l-9.436,4.071l-13.727-2.039l1.717-5.521l-2.573-10.175l4.288-7.849
				l-6.296-28.189l-11.718-9.01l-18.592-9.305l-10.01,2.33l-9.146-5.815l-10.295,2.901l-12.3-3.775l-10.296,9.306l-5.428-8.432
				l-9.438,6.103l-6.578-0.584l-2.859-4.935l-10.868-10.464l-11.436,9.88l-12.293-3.2l-8.013-7.849l-6.002-0.289l-3.432-5.518
				l-0.285-4.945l-0.669-1.203l3.525-0.54l1.434-6.978l8.294-2.904l0.567-5.816l10.293-2.328l9.155,2.912l15.44,0.575l8.579,4.073
				l8.863,5.816l16.015-6.975l15.16-12.505l10.577-0.288l5.215-4.481l4.219,1.866l10.012,1.745l2.573,3.2l8.287,0.287l1.717,4.359
				l15.44,2.329l2.865,8.423l3.998-2.616l14.019,6.4l3.713,7.552l-0.857,7.56l12.009,0.585l10.296-4.658l15.723,2.913l1.716,6.106
				l2.694-0.255l2.169,3.741l7.146,11.337l6.005,19.469l8.905,12.515l0.825,1.15l3.714,11.04L352.522,369.461z"/>
		</defs>
		<clipPath id="SVGID_6_">
			<use xlink:href="#SVGID_5_"  overflow="visible"/>
		</clipPath>
		<rect x="88.475" y="248.702" opacity="0.4" clip-path="url(#SVGID_6_)" fill="#FFFFFF" width="269.207" height="153.336"/>
	</g>
</g>
<g id="都江堰">
	<g>
		<defs>
			<polygon id="SVGID_7_" points="332.616,220.504 330.513,222.122 331.068,230.872 326.584,245.155 327.988,249.527 
				315.486,257.267 314.806,257.688 305.827,246.902 302.185,248.653 315.083,288.015 315.646,298.8 315.201,298.842 
				312.559,299.098 310.874,292.973 295.453,290.051 285.356,294.723 273.577,294.135 274.42,286.554 270.776,278.977 
				257.028,272.558 253.108,275.182 250.298,266.732 235.155,264.396 233.469,260.024 225.343,259.735 222.82,256.523 213,254.773 
				208.862,252.904 211.041,250.987 219.167,244.866 220.85,229.408 239.924,218.038 240.487,190.635 250.298,160.019 
				265.164,135.23 264.601,120.071 264.324,111.326 260.679,101.703 265.442,94.12 261.236,78.961 274.14,74.298 285.634,71.676 
				294.049,73.712 299.912,68.492 303.303,73.424 304.146,82.173 308.915,87.122 309.479,92.956 314.242,99.369 313.4,106.662 
				306.391,110.163 299.66,122.111 302.185,131.442 319.289,144.853 320.972,160.019 329.949,168.47 331.354,175.468 
				327.425,178.388 317.892,178.966 320.13,185.962 326.021,202.583 336.957,217.164 			"/>
		</defs>
		<clipPath id="SVGID_8_">
			<use xlink:href="#SVGID_7_"  overflow="visible"/>
		</clipPath>
		<rect x="203.802" y="63.228" opacity="0.4" clip-path="url(#SVGID_8_)" fill="#FFFFFF" width="138.215" height="241.133"/>
	</g>
</g>
<g id="彭州市">
	<g>
		<defs>
			<polygon id="SVGID_9_" points="483.797,210.444 483.365,217.314 480.764,226.763 477.728,232.348 476.905,237.657 
				473.104,239.22 447.089,237.786 443.907,227.769 437.838,220.323 421.939,230.347 412.977,230.347 408.064,234.35 
				406.037,238.644 396.212,234.642 384.358,233.784 384.176,233.739 366.728,230.056 363.545,230.347 362.974,232.348 
				356.035,233.784 350.831,227.477 343.601,228.053 336.662,222.615 333.922,221.025 338.397,217.745 327.123,203.426 
				321.054,187.103 318.746,180.232 328.57,179.664 332.622,176.797 331.174,169.924 321.92,161.624 320.187,146.729 
				302.555,133.56 299.954,122.396 306.893,109.663 314.115,106.225 313.981,102.062 310.075,95.764 309.494,90.034 304.578,85.174 
				303.709,76.582 300.215,71.738 300.239,71.712 308.913,61.979 322.789,59.685 326.551,51.672 340.713,45.795 351.7,47.513 
				355.601,52.531 366.007,53.819 377.715,51.095 382.622,54.247 385.806,64.126 393.758,76.153 387.974,79.726 380.603,86.891 
				381.321,96.623 394.329,108.503 394.478,122.54 401.703,129.266 414.856,133.276 426.276,143.585 424.543,151.317 
				429.746,157.038 429.6,168.351 440.438,180.378 			"/>
		</defs>
		<clipPath id="SVGID_10_">
			<use xlink:href="#SVGID_9_"  overflow="visible"/>
		</clipPath>
		<rect x="294.739" y="40.626" opacity="0.4" clip-path="url(#SVGID_10_)" fill="#FFFFFF" width="194.273" height="203.764"/>
	</g>
</g>
<g id="郫都区">
	<g>
		<defs>
			<polygon id="SVGID_11_" points="437.922,291.111 432.645,289.369 435.274,297.173 435.285,297.215 433.522,302.45 
				430.003,302.738 426.484,296.928 418.865,296.928 419.445,301.576 418.865,304.193 413.875,307.097 409.188,308.84 
				401.557,309.136 400.063,308.598 383.671,302.738 374.282,296.928 373.693,301.576 364.015,297.799 344.078,287.04 
				340.849,277.745 331.46,275.703 328.239,268.439 317.972,263.495 315.165,257.844 328.239,250.126 326.771,245.767 
				331.46,231.527 330.879,222.805 333.079,221.191 335.858,222.805 342.898,228.325 350.235,227.741 355.516,234.144 
				362.554,232.686 363.134,230.653 366.365,230.358 384.068,234.098 385.131,235.886 401.267,242.565 400.967,254.486 
				397.449,256.518 405.077,260.879 409.768,267.567 425.313,274.257 430.003,277.745 438.513,288.209 			"/>
		</defs>
		<clipPath id="SVGID_12_">
			<use xlink:href="#SVGID_11_"  overflow="visible"/>
		</clipPath>
		<rect x="309.874" y="215.943" opacity="0.4" clip-path="url(#SVGID_12_)" fill="#FFFFFF" width="133.931" height="98.44"/>
	</g>
</g>
<g id="新都区">
	<g>
		<defs>
			<polygon id="SVGID_13_" points="541.174,301.281 540.525,308.302 539.56,311.425 539.438,311.813 529.604,312.024 
				523.282,310.932 514.974,328.255 513.115,327.92 506.897,314.001 495.994,314.212 492.921,308.742 484.191,307.859 
				482.665,305.002 474.375,302.604 474.289,300.964 473.937,294.046 466.299,294.913 469.355,291.842 468.038,287.24 
				455.377,279.563 450.582,279.123 441.628,286.357 444.034,289.656 447.088,289.003 446.647,293.378 447.297,296.448 
				456.465,294.26 456.694,297.56 450.354,299.305 447.088,303.91 439.872,297.982 435.568,296.853 432.951,289.003 438.202,290.75 
				438.782,287.839 430.336,277.307 425.682,273.797 410.245,267.058 405.593,260.336 398.025,255.943 401.521,253.897 
				401.819,241.919 385.802,235.198 384.749,233.398 384.924,233.433 396.865,234.315 406.77,238.408 408.806,234.015 
				413.742,229.923 422.784,229.923 438.782,219.691 444.894,227.294 448.105,237.525 474.306,238.989 478.135,237.403 
				478.08,237.665 482.017,238.106 486.37,240.752 491.848,239.166 492.271,244.036 483.104,255.009 485.281,260.054 
				491.181,258.291 503.193,258.078 510.621,262.453 511.48,267.058 509.305,274.749 521.313,293.606 518.031,297.982 
				526.335,305.233 532.446,300.841 			"/>
		</defs>
		<clipPath id="SVGID_14_">
			<use xlink:href="#SVGID_13_"  overflow="visible"/>
		</clipPath>
		<rect x="379.498" y="214.412" opacity="0.4" clip-path="url(#SVGID_14_)" fill="#FFFFFF" width="166.928" height="119.123"/>
	</g>
</g>
<g id="青白江-无">
</g>
<g id="青羊区">
	<g>
		<defs>
			<polygon id="SVGID_15_" points="450.083,329.997 447.706,332.521 446.499,333.892 444.139,336.533 428.719,335.563 
				410.005,331.135 403.303,333.908 401.336,336.417 401.302,336.267 388.725,330.45 386.915,331.05 382.883,325.868 
				389.31,323.176 391.654,319.016 398.735,313.196 400.028,310.354 408.573,315.89 412.435,321.722 416.931,321.722 
				418.223,317.562 423.582,321.722 423.151,325.868 430.011,323.578 433.214,330.232 439.642,330.65 443.501,326.904 
				445.431,326.504 			"/>
		</defs>
		<clipPath id="SVGID_16_">
			<use xlink:href="#SVGID_15_"  overflow="visible"/>
		</clipPath>
		<rect x="377.729" y="305.351" opacity="0.4" clip-path="url(#SVGID_16_)" fill="#FFFFFF" width="77.507" height="36.186"/>
	</g>
</g>
<g id="温江区">
	<g>
		<defs>
			<polygon id="SVGID_17_" points="402.169,308.636 400.458,310.189 399.106,313.15 391.711,319.223 389.247,323.564 
				383.523,326.384 387.746,331.791 380.986,334.047 379.49,338.385 374.713,338.968 373.816,335.497 371.127,338.385 
				367.237,345.327 362.459,345.041 361.858,349.383 354.096,350.535 339.687,346.213 330.383,333.759 324.105,314.381 
				317.641,303.1 315.373,299.375 315.847,299.334 315.247,288.633 301.505,248.579 305.387,246.843 314.952,258.544 
				315.678,258.128 318.538,263.751 328.996,268.672 332.278,275.9 341.842,277.931 345.132,287.182 365.444,297.892 
				373.305,301.649 373.905,297.024 385.469,302.805 			"/>
		</defs>
		<clipPath id="SVGID_18_">
			<use xlink:href="#SVGID_17_"  overflow="visible"/>
		</clipPath>
		<rect x="296.114" y="242.62" opacity="0.4" clip-path="url(#SVGID_18_)" fill="#FFFFFF" width="111.446" height="113.138"/>
	</g>
</g>
<g id="金牛区">
	<g>
		<defs>
			<polygon id="SVGID_19_" points="473.565,300.851 470.404,302.891 459.786,307.646 457.403,310.887 451.12,312.401 
				448.954,316.94 455.886,318.238 455.452,328.396 454.994,333.739 452.42,331.639 450.418,330.09 445.703,326.453 
				443.754,326.884 439.854,330.774 433.354,330.342 430.104,323.424 423.171,325.805 423.605,321.479 418.188,317.156 
				416.889,321.479 412.337,321.479 408.438,315.429 399.779,309.668 400.466,308.123 401.937,308.656 409.452,308.362 
				414.071,306.635 418.985,303.755 419.557,301.161 418.985,296.553 426.488,296.553 429.957,302.312 433.422,302.027 
				435.157,296.838 435.147,296.795 439.42,297.919 446.57,303.755 449.819,299.218 456.102,297.486 455.886,294.244 
				446.787,296.405 446.138,293.379 446.57,289.057 443.537,289.706 441.153,286.463 450.036,279.33 454.802,279.763 
				467.368,287.328 468.669,291.867 465.636,294.892 473.221,294.028 			"/>
		</defs>
		<clipPath id="SVGID_20_">
			<use xlink:href="#SVGID_19_"  overflow="visible"/>
		</clipPath>
		<rect x="394.567" y="274.127" opacity="0.4" clip-path="url(#SVGID_20_)" fill="#FFFFFF" width="84.21" height="64.815"/>
	</g>
</g>
<g id="成华区">
	<g>
		<defs>
			<polygon id="SVGID_21_" points="512.516,327.661 507.224,326.72 488.389,329.478 479.945,332.881 481.32,346.882 481.32,346.899 
				469.986,348.628 468.474,344.366 455.468,333.894 455.924,328.621 456.358,318.625 449.43,317.356 451.605,312.873 
				457.871,311.384 460.255,308.201 470.857,303.513 474.027,301.51 474.113,303.101 482.33,305.428 483.843,308.201 
				492.497,309.058 495.543,314.362 506.354,314.157 			"/>
		</defs>
		<clipPath id="SVGID_22_">
			<use xlink:href="#SVGID_21_"  overflow="visible"/>
		</clipPath>
		<rect x="444.224" y="296.388" opacity="0.4" clip-path="url(#SVGID_22_)" fill="#FFFFFF" width="73.498" height="57.362"/>
	</g>
</g>
<g id="龙泉驿">
	<g>
		<defs>
			<polygon id="SVGID_23_" points="593.248,338.599 592.159,346.611 591.067,352.463 583.409,355.059 582.549,357.827 
				581.509,357.515 576.107,358.96 574.065,364.167 574.365,369.636 572.463,383.221 579.029,387.838 570.562,393.463 
				571.74,399.087 560.796,398.374 553.789,400.534 547.807,389.562 546.645,396.494 539.057,397.364 533.073,392.592 
				528.408,396.789 523.164,399.663 518.2,400.97 519.221,406.456 514.381,409.4 500.249,402.275 497.978,398.374 492.417,388.864 
				486.256,378.31 481.293,378.886 478.653,375.139 479.251,371.082 478.355,370.699 482.087,361.99 473.566,351.384 
				482.087,349.224 481.945,347.674 481.945,347.655 480.556,333.408 489.089,329.943 508.135,327.138 513.485,328.097 
				515.349,328.427 523.676,311.323 530.01,312.403 539.869,312.193 539.989,311.811 555.829,319.336 567.428,320.416 
				571.143,327.783 576.847,328.219 578.817,326.477 588.657,331.685 585.381,342.291 590.628,336.874 592.986,337.345 			"/>
		</defs>
		<clipPath id="SVGID_24_">
			<use xlink:href="#SVGID_23_"  overflow="visible"/>
		</clipPath>
		<rect x="468.303" y="306.11" opacity="0.4" clip-path="url(#SVGID_24_)" fill="#FFFFFF" width="130.209" height="108.503"/>
	</g>
</g>
<g id="武侯区">
	<g>
		<defs>
			<polygon id="SVGID_25_" points="456.894,346.003 455.272,347.754 454.827,352.535 452.459,355.304 452.316,365.023 
				454.06,369.471 452.904,377.369 452.725,377.633 450.84,380.261 450.162,380.541 445.836,382.292 443.255,380.768 
				439.034,378.227 439.034,378.244 436.095,384.602 432.552,376.493 430.186,370.979 434.314,368.071 425.467,362.553 
				409.815,366.039 404.792,361.1 406.271,356.46 401,336.88 403.031,334.252 409.957,331.347 429.295,335.985 445.229,337.001 
				447.668,334.234 456.163,340.645 			"/>
		</defs>
		<clipPath id="SVGID_26_">
			<use xlink:href="#SVGID_25_"  overflow="visible"/>
		</clipPath>
		<rect x="395.675" y="326.105" opacity="0.4" clip-path="url(#SVGID_26_)" fill="#FFFFFF" width="66.544" height="63.737"/>
	</g>
</g>
<g id="锦江区">
	<g>
		<defs>
			<polygon id="SVGID_27_" points="472.569,350.938 481.083,361.726 477.355,370.582 477.355,370.601 472.13,368.332 
				466.873,372.743 468.632,375.665 468.632,375.683 466.873,377.135 460.752,375.965 462.793,370.104 452.894,369.501 
				452.856,369.749 451.135,365.25 451.274,355.42 453.614,352.621 454.055,347.786 455.654,346.015 454.934,340.595 
				446.543,334.111 447.773,332.66 450.2,329.984 452.225,331.563 454.825,333.705 467.965,344.545 469.493,348.954 
				480.942,347.147 480.942,347.165 481.083,348.742 			"/>
		</defs>
		<clipPath id="SVGID_28_">
			<use xlink:href="#SVGID_27_"  overflow="visible"/>
		</clipPath>
		<rect x="441.283" y="324.684" opacity="0.4" clip-path="url(#SVGID_28_)" fill="none" width="45.06" height="57.752"/>
	</g>
</g>
<g id="高新区">
	<g>
		<defs>
			<polygon id="SVGID_29_" points="496.36,398.215 484.708,401.556 476.566,396.164 473.223,400.472 456.722,393.165 
				450.77,380.915 451.405,380.64 453.178,378.055 453.345,377.795 454.432,370.025 454.465,369.784 463.877,370.37 
				461.938,376.072 467.758,377.21 469.43,375.778 467.758,372.938 472.754,368.647 477.722,370.833 478.572,371.215 
				478.004,375.228 480.512,378.934 485.227,378.363 491.077,388.807 			"/>
		</defs>
		<clipPath id="SVGID_30_">
			<use xlink:href="#SVGID_29_"  overflow="visible"/>
		</clipPath>
		<rect x="445.77" y="363.491" opacity="0.4" clip-path="url(#SVGID_30_)" fill="#FFFFFF" width="55.591" height="43.221"/>
	</g>
</g>
<g id="新津区">
	<g>
		<defs>
			<path id="SVGID_31_" d="M393.942,441.039l-4.818,4.135l2.331,4.021l-0.28-0.024l-0.299,6.807l-8.462,5.325l-8.182-6.506
				l-8.762-1.775H342.99l-8.47,5.912l-0.516,2.085l-2.771-1.05l-3.065-3.77l-4.6,1.775l-3.503-0.444l5.914-5.323l3.722-1.111
				l-2.628-3.549l-0.875-7.546l-15.549-17.308l1.34-2.074l1.945-3.03l8.76-8.874l0.875-9.765l4.6-3.549l8.574-0.196l2.744,1.014
				l3.503-1.19l-0.586-5.619v-1.776c0,0,1.164-2.065,2.628-1.481c1.462,0.596,2.919,0.888,2.919,0.888h1.751l0.016-0.124
				l6.991,6.339l15.19-1.031l5.547,6.215l4.09-1.926l6.273,11.245l-1.605,5.022l9.488,12.87L393.942,441.039z"/>
		</defs>
		<clipPath id="SVGID_32_">
			<use xlink:href="#SVGID_31_"  overflow="visible"/>
		</clipPath>
		<rect x="305.379" y="380.706" opacity="0.4" clip-path="url(#SVGID_32_)" fill="#FFFFFF" width="95.583" height="85.938"/>
	</g>
</g>
<g id="浦江区">
	<g>
		<defs>
			<polygon id="SVGID_33_" points="303.74,471.978 288.59,463.997 281.878,462.89 279.499,459.343 270.406,459.563 262.614,464.218 
				253.306,461.56 253.09,454.244 208.501,459.785 205.254,456.903 191.834,465.772 185.99,465.105 183.177,469.76 174.084,473.75 
				174.517,478.403 169.973,476.188 168.674,479.516 163.912,481.73 162.359,483.616 166.365,485.131 166.652,496.657 
				175.889,493.109 186.277,497.839 184.836,504.34 181.66,515.274 185.412,530.055 188.585,541.876 194.937,548.675 
				200.419,543.649 207.058,544.534 209.367,540.988 212.253,545.717 218.603,550.447 222.355,544.239 216.292,538.625 
				214.562,537.738 211.964,535.374 216.582,533.6 222.931,533.305 222.644,536.261 228.413,540.988 250.349,523.848 
				247.463,517.05 251.215,514.093 259.585,509.957 265.067,507.594 270.551,506.41 274.014,509.365 282.094,503.453 
				291.619,509.068 287.868,500.201 289.021,495.476 297.971,494.292 302.298,486.607 303.163,480.696 303.452,480.696 
				302.659,476.632 			"/>
		</defs>
		<clipPath id="SVGID_34_">
			<use xlink:href="#SVGID_33_"  overflow="visible"/>
		</clipPath>
		<rect x="157.153" y="448.908" opacity="0.4" clip-path="url(#SVGID_34_)" fill="#FFFFFF" width="151.794" height="106.875"/>
	</g>
</g>
</svg>