            <svg version="1.1" id="map-svg" xmlns="http://www.w3.org/2000/svg" xmlns:xlink="http://www.w3.org/1999/xlink" x="0px" y="0px"
	 width="255px" height="124px" viewBox="0 0 255 124" enable-background="new 0 0 255 124" xml:space="preserve">
<g>
	<path id="qls" style="stroke:#ffd600;fill:red;cursor:pointer;stroke-width:2;" points="M251.604,110.184l-2.495,9.422l-1.372,7.909l-0.015,0.115h-1.662c0,0-1.383-0.273-2.771-0.83
			c-1.389-0.548-2.494,1.387-2.494,1.387v1.662l0.557,5.26l-3.325,1.114l-2.603-0.947l-3.5-1.271l-9.692-16.617l-12.755-4.429
			l-16.903,6.365l-3.325,6.929l-5.546,3.041l-3.042-11.075l-9.146,3.879l-13.303-1.942l1.664-5.262l-2.494-9.694l4.155-7.479
			l-6.102-26.859l-11.356-8.584l-18.018-8.865l-9.701,2.218l-8.864-5.542l-9.977,2.767l-11.922-3.599l-9.978,8.867l-5.261-8.035
			l-9.146,5.816l-6.376-0.557l-2.771-4.703l-10.532-9.969l-11.083,9.413L18.537,47.04l-7.766-7.478l-5.818-0.276l-3.325-5.257
			l-0.276-4.711l-0.648-1.146l3.417-0.515l1.389-6.648l8.038-2.767l0.55-5.542l9.976-2.219l8.872,2.775l14.964,0.548l8.314,3.881
			l8.59,5.542l15.521-6.646L95.027,4.666l10.251-0.274l5.054-4.27l4.089,1.777l9.703,1.663l2.494,3.049l8.031,0.274l1.664,4.153
			l14.964,2.219l2.777,8.026l3.875-2.493l13.585,6.098l3.6,7.196l-0.831,7.202l11.64,0.558l9.978-4.438l15.238,2.775l1.663,5.817
			l2.611-0.243l2.102,3.565l6.927,10.801l5.819,18.551l8.63,11.924l0.799,1.096l3.6,10.52L251.604,110.184z"/>
</g>
</svg>