            <svg version="1.1" id="map-svg" xmlns="http://www.w3.org/2000/svg" xmlns:xlink="http://www.w3.org/1999/xlink" x="0px" y="0px"
	 width="255px" height="124px" viewBox="0 0 255 124" enable-background="new 0 0 255 124" xml:space="preserve">
<g>
	<polygon id="qls" style="stroke:#ffd600;fill:rgba(255, 212, 0, 0.3);cursor:pointer;stroke-width:2;" points="437.425,464.274 429.286,464.456 424.921,467.781 424.089,476.92 415.776,485.229 413.929,488.062 
			411.826,487.305 406.837,480.036 391.042,474.22 380.648,481.491 382.936,488.344 363.813,488.967 349.887,481.282 
			340.533,468.611 330.141,471.521 322.034,468.82 318.086,459.057 307.068,451.786 296.678,447.01 291.064,448.049 
			282.958,446.594 276.1,449.293 266.953,449.086 265.915,460.096 261.759,458.227 255.521,456.357 254.067,462.587 247.625,464.04 
			244.298,461.757 237.024,461.964 233.076,456.98 230.58,456.773 226.423,453.45 219.332,455.119 216.928,454.971 215.822,445.83 
			218.874,439.738 212.223,433.649 208.067,434.755 204.74,431.432 206.121,417.582 203.626,401.52 195.313,400.689 187.83,389.333 
			185.892,385.733 171.484,391.825 168.433,381.306 157.899,368.287 159.289,361.639 185.061,352.776 200.584,357.485 
			202.704,357.171 203.351,358.316 203.626,363.027 206.954,368.287 212.771,368.561 220.537,376.041 232.452,379.089 
			243.533,369.675 254.067,379.646 256.835,384.347 263.213,384.903 272.36,379.089 277.621,387.122 287.599,378.257 
			299.521,381.854 309.496,379.089 318.359,384.629 328.063,382.411 346.078,391.277 357.436,399.859 363.539,426.719 
			359.381,434.197 361.877,443.894 360.212,449.153 373.515,451.096 382.661,447.217 385.704,458.292 391.249,455.253 
			394.574,448.322 411.477,441.959 424.23,446.387 433.924,463.003 "/>
</g>
</svg>