<svg t="1589699136914" class="icon" viewBox="0 0 1024 1024" version="1.1" xmlns="http://www.w3.org/2000/svg" p-id="2186" width="20" height="20"><path d="M916.7 875.7L797 756c58.1-71 92.9-161.7 92.9-260.6C890 268 705.6 83.6 478.2 83.6S66.4 268 66.4 495.4s184.4 411.8 411.8 411.8c107.7 0 205.7-41.3 279.1-109l118.4 118.4c5.7 5.7 13.1 8.5 20.5 8.5s14.8-2.8 20.5-8.5c11.3-11.2 11.3-29.6 0-40.9z m-300.8-54.3c-43.6 18.4-89.9 27.8-137.7 27.8s-94.1-9.3-137.7-27.8c-42.1-17.8-80-43.3-112.5-75.8s-58-70.4-75.8-112.5c-18.4-43.6-27.8-89.9-27.8-137.7 0-47.8 9.3-94.1 27.8-137.7 17.8-42.1 43.3-80 75.8-112.5s70.4-58 112.5-75.8c43.6-18.4 89.9-27.8 137.7-27.8s94.1 9.3 137.7 27.8c42.1 17.8 80 43.3 112.5 75.8s58 70.4 75.8 112.5c18.4 43.6 27.8 89.9 27.8 137.7 0 47.8-9.3 94.1-27.8 137.7-17.8 42.1-43.3 80-75.8 112.5-32.6 32.5-70.4 58-112.5 75.8z" p-id="2187" fill="#FFFfff"></path></svg>